<?xml version="1.0" standalone="no"?>
<!DOCTYPE svg PUBLIC "-//W3C//DTD SVG 20010904//EN"
 "http://www.w3.org/TR/2001/REC-SVG-20010904/DTD/svg10.dtd">
<svg version="1.0" xmlns="http://www.w3.org/2000/svg"
 width="500.000000pt" height="500.000000pt" viewBox="0 0 500.000000 500.000000"
 preserveAspectRatio="xMidYMid meet">

<g transform="translate(0.000000,500.000000) scale(0.100000,-0.100000)"
fill="#000000" stroke="none">
<path d="M1640 2221 c0 -5 9 -15 20 -21 19 -10 20 -21 20 -181 l0 -169 -25
-12 c-14 -6 -25 -15 -25 -20 0 -12 248 -10 294 3 50 14 96 59 96 94 0 56 -54
115 -106 115 -11 0 -5 8 17 23 67 45 64 117 -6 152 -32 16 -66 21 -162 23 -83
3 -123 1 -123 -7z m234 -47 c9 -9 16 -32 16 -54 0 -48 -27 -70 -87 -70 l-43 0
0 70 0 70 49 0 c32 0 55 -6 65 -16z m26 -189 c21 -19 28 -87 12 -112 -12 -20
-65 -35 -99 -28 -42 8 -53 29 -53 106 l0 61 60 -4 c39 -3 66 -11 80 -23z"/>
<path d="M2060 2220 c0 -6 11 -15 25 -20 l25 -10 -2 -172 c-3 -169 -4 -173
-25 -183 -13 -5 -23 -13 -23 -17 0 -5 83 -8 185 -8 l185 0 0 23 c0 12 3 39 6
60 8 47 -10 50 -30 4 -8 -21 -25 -38 -45 -47 -36 -15 -136 -9 -154 9 -13 13
-23 264 -13 308 4 13 18 28 31 33 51 19 25 30 -70 30 -58 0 -95 -4 -95 -10z"/>
<path d="M2470 2220 c0 -6 8 -14 18 -17 9 -4 20 -11 24 -17 4 -6 8 -85 8 -174
l0 -164 -30 -11 c-16 -6 -30 -15 -30 -19 0 -4 45 -8 100 -8 60 0 100 4 100 10
0 6 -6 10 -14 10 -8 0 -22 7 -30 16 -13 13 -16 43 -16 170 0 152 0 155 25 178
14 13 25 26 25 30 0 3 -40 6 -90 6 -55 0 -90 -4 -90 -10z"/>
<path d="M2785 2220 c-40 -16 -68 -57 -68 -99 0 -60 25 -88 111 -129 93 -43
112 -58 112 -88 0 -69 -127 -86 -182 -25 -15 17 -28 41 -28 52 0 11 -5 19 -11
17 -6 -2 -10 -7 -10 -11 1 -4 1 -34 1 -67 0 -33 4 -60 10 -60 6 0 10 7 10 15
0 19 0 19 40 -1 18 -9 55 -16 85 -16 87 1 143 41 151 109 8 63 -20 95 -131
148 -88 42 -95 47 -95 74 0 79 127 79 162 1 18 -41 43 -41 34 1 -3 17 -6 46
-6 63 -1 27 -2 29 -13 15 -11 -15 -16 -15 -37 -3 -28 15 -104 17 -135 4z"/>
<path d="M3128 2214 c-15 -8 -35 -28 -43 -44 -38 -73 -4 -128 113 -185 109
-53 123 -75 77 -120 -51 -52 -150 -24 -181 52 -21 50 -38 42 -30 -13 3 -26 6
-59 6 -73 1 -23 2 -24 13 -10 11 15 16 15 41 2 39 -20 128 -18 173 4 21 10 46
33 56 51 41 71 -6 142 -126 189 -78 30 -105 59 -87 92 13 26 41 41 74 41 28 0
82 -41 91 -70 12 -38 25 -20 25 35 0 30 -4 55 -10 55 -5 0 -10 -4 -10 -9 0 -6
-16 -3 -35 5 -44 18 -112 17 -147 -2z"/>
<path d="M1838 1638 c7 -7 12 -37 12 -68 0 -31 -5 -61 -12 -68 -9 -9 -3 -12
28 -11 21 1 31 3 22 6 -12 3 -18 14 -18 34 0 38 13 37 46 -6 14 -19 34 -35 44
-35 14 0 11 8 -16 37 -33 35 -33 37 -14 50 25 18 26 49 1 63 -11 5 -39 10 -62
10 -34 0 -40 -3 -31 -12z m77 -28 c0 -18 -6 -26 -22 -28 -20 -3 -23 1 -23 28
0 27 3 31 23 28 16 -2 22 -10 22 -28z"/>
<path d="M2293 1609 c-5 -5 -6 -32 -3 -61 4 -48 7 -53 30 -55 14 -1 18 0 8 3
-14 4 -18 16 -18 49 0 24 4 45 9 47 5 2 3 8 -4 15 -7 7 -16 8 -22 2z"/>
<path d="M3133 1609 c-5 -5 -6 -32 -3 -61 4 -48 7 -53 30 -55 14 -1 18 0 8 3
-14 4 -18 16 -18 49 0 24 4 45 9 47 5 2 3 8 -4 15 -7 7 -16 8 -22 2z"/>
<path d="M2038 1589 c-21 -12 -24 -69 -6 -87 15 -15 64 -16 73 -2 4 7 -2 9
-17 5 -31 -8 -50 14 -45 52 3 20 9 28 23 28 10 0 18 -6 17 -12 -2 -7 4 -13 13
-13 9 0 14 7 12 18 -4 20 -45 27 -70 11z"/>
<path d="M2165 1583 c-4 -12 2 -25 19 -40 14 -12 26 -27 26 -33 0 -14 -23 -13
-38 2 -9 9 -12 8 -12 -6 0 -14 7 -17 33 -14 42 4 49 38 13 62 -15 9 -26 21
-26 26 0 14 27 12 33 -2 3 -8 6 -6 6 5 1 23 -44 23 -54 0z"/>
<path d="M2386 1591 c-4 -5 -2 -12 3 -15 5 -4 12 -2 16 4 9 15 35 12 35 -5 0
-8 -14 -22 -31 -30 -47 -25 -35 -50 24 -51 35 -1 45 1 38 10 -5 6 -11 29 -13
51 -3 37 -6 40 -35 43 -17 2 -34 -1 -37 -7z m45 -84 c-8 -8 -14 -7 -23 2 -11
10 -9 15 7 27 18 13 20 13 23 -2 2 -9 -1 -21 -7 -27z"/>
<path d="M2527 1568 c8 -68 13 -78 36 -78 13 0 28 5 35 12 9 9 12 9 12 0 0 -7
6 -12 13 -12 8 0 11 16 9 55 -3 47 -7 55 -24 55 -17 0 -18 -3 -8 -15 15 -18 4
-74 -17 -82 -20 -8 -33 14 -33 60 0 24 -5 37 -13 37 -9 0 -12 -10 -10 -32z"/>
<path d="M2699 1593 c-1 -5 0 -25 1 -47 1 -23 -4 -42 -12 -47 -8 -6 -1 -9 22
-9 24 0 31 3 21 9 -9 6 -12 20 -9 42 3 19 3 40 1 47 -5 13 -22 17 -24 5z"/>
<path d="M2735 1590 c-3 -5 3 -10 14 -10 12 0 21 5 21 10 0 6 -6 10 -14 10 -8
0 -18 -4 -21 -10z"/>
<path d="M2815 1590 c-4 -6 -4 -14 0 -18 3 -3 10 0 15 7 9 15 40 8 40 -8 0 -6
-13 -17 -30 -26 -18 -9 -30 -23 -30 -35 0 -16 7 -19 50 -18 28 1 46 4 41 7 -5
4 -11 27 -13 51 -3 42 -5 45 -35 48 -17 2 -34 -2 -38 -8z m50 -69 c-7 -24 -35
-29 -35 -6 0 13 31 38 38 30 2 -2 1 -13 -3 -24z"/>
<path d="M2955 1543 c0 -50 1 -53 25 -52 14 0 19 3 13 6 -18 7 -16 68 2 83 25
21 45 4 45 -39 0 -22 -5 -42 -12 -44 -7 -3 -2 -6 12 -6 24 -1 25 2 22 42 -6
56 -15 65 -65 65 l-42 -1 0 -54z"/>
</g>
</svg>
